<svg width="44" height="44" viewBox="0 0 44 44" fill="none" xmlns="http://www.w3.org/2000/svg">
<path fill-rule="evenodd" clip-rule="evenodd" d="M22.095 1.36792C19.9334 1.36792 17.1963 1.71606 14.5476 2.43564C11.9187 3.14982 9.22976 4.26934 7.27596 5.90341C6.00445 6.96684 4.70486 8.63281 3.61671 10.4951C2.52092 12.3705 1.57807 14.5499 1.08422 16.6995C0.597331 18.8189 0.50475 21.0974 1.34786 23.0307C2.24077 25.0781 4.06394 26.4704 6.79006 26.9248L6.91717 26.946L8.40253 26.9414C8.31031 27.9734 8.25664 29.0028 8.25664 30.0025C8.25664 34.8125 9.46319 38.0847 12.134 40.0271C14.6726 41.8733 18.1905 42.23 22.0126 42.23C25.8347 42.23 29.3526 41.8733 31.8912 40.0271C34.562 38.0847 35.7686 34.8125 35.7686 30.0025C35.7686 29.0027 35.7149 27.9732 35.6227 26.9412L37.2729 26.946L37.3999 26.9248C40.126 26.4704 41.9492 25.0781 42.8421 23.0307C43.6852 21.0974 43.5926 18.8189 43.1057 16.6995C42.6119 14.5499 41.669 12.3705 40.5732 10.4951C39.4851 8.63281 38.1855 6.96684 36.914 5.90341C34.9602 4.26934 32.2712 3.14982 29.6423 2.43564C26.9936 1.71606 24.2566 1.36792 22.095 1.36792Z" fill="#FFD78D"/>
<path fill-rule="evenodd" clip-rule="evenodd" d="M17.8061 19.3038C17.8061 18.2486 16.9507 17.3932 15.8955 17.3932C14.8404 17.3932 13.985 18.2486 13.985 19.3038V20.8322C13.985 21.8874 14.8404 22.7428 15.8955 22.7428C16.9507 22.7428 17.8061 21.8874 17.8061 20.8322V19.3038ZM30.0336 19.3038C30.0336 18.2486 29.1782 17.3932 28.1231 17.3932C27.0679 17.3932 26.2125 18.2486 26.2125 19.3038V20.8322C26.2125 21.8874 27.0679 22.7428 28.1231 22.7428C29.1782 22.7428 30.0336 21.8874 30.0336 20.8322V19.3038ZM19.806 28.2939C18.8622 27.822 17.7146 28.2046 17.2427 29.1483C16.7708 30.0921 17.1534 31.2397 18.0971 31.7116L21.154 33.2401C21.6919 33.509 22.325 33.509 22.8629 33.2401L25.9198 31.7116C26.8635 31.2397 27.2461 30.0921 26.7742 29.1483C26.3023 28.2046 25.1547 27.822 24.2109 28.2939L22.0085 29.3951L19.806 28.2939Z" fill="#7C4716"/>
<path fill-rule="evenodd" clip-rule="evenodd" d="M39.176 25.19L39.2995 26.4021C38.7246 26.6335 38.0911 26.8091 37.3995 26.9244L37.2725 26.9456L35.6223 26.9408L35.4937 25.625C35.1291 22.7694 34.3979 19.9226 33.8325 17.721C33.8098 17.6325 33.7873 17.5449 33.7651 17.4585C33.4786 16.3418 33.2164 15.4149 33.0266 14.7695C32.9317 14.4469 32.855 14.1951 32.8025 14.0256L32.7429 13.8345L32.7281 13.7881L32.7247 13.7776C32.401 12.7734 32.9518 11.6948 33.9559 11.3709C34.9601 11.047 36.0368 11.5984 36.3607 12.6027L36.368 12.6254L36.3862 12.6827L36.453 12.8965C36.5103 13.0817 36.5921 13.3505 36.6923 13.6911C36.8927 14.3722 37.1671 15.3425 37.4663 16.5089C38.0628 18.834 38.7668 21.9724 39.173 25.1663L39.176 25.19ZM8.54125 25.6492L8.40087 26.9418L6.91551 26.9464L6.7884 26.9252C6.04801 26.8018 5.37422 26.6092 4.76758 26.3531L4.91433 25.1671C5.32053 21.9732 6.02453 18.8348 6.62102 16.5097C6.92025 15.3433 7.19468 14.373 7.39502 13.6919C7.49525 13.3512 7.57706 13.0825 7.63434 12.8973L7.70114 12.6835L7.71933 12.6262L7.72438 12.6104L7.72586 12.6058C8.0498 11.6016 9.12725 11.0478 10.1315 11.3717C11.1356 11.6956 11.6871 12.7724 11.3632 13.7765L11.3593 13.7889L11.3445 13.8353L11.2848 14.0264C11.2324 14.1959 11.1557 14.4477 11.0608 14.7703C10.8709 15.4157 10.6087 16.3426 10.3223 17.4593C10.2519 17.7334 10.1779 18.0184 10.1013 18.313C9.55189 20.4261 8.87416 23.033 8.54166 25.646L8.54125 25.6492Z" fill="#A46226"/>
</svg>
