<svg width="51" height="51" viewBox="0 0 51 51" fill="none" xmlns="http://www.w3.org/2000/svg">
<path d="M11.9458 37.659C7.49366 36.6386 3.96059 32.9277 3.39634 28.3147C3.10062 25.897 2.88126 23.431 2.88126 20.9266C2.88126 11.4705 11.3912 3.86661 20.8375 3.43639C22.2888 3.37029 23.7517 3.33124 25.225 3.33124C26.6983 3.33124 28.1612 3.37029 29.6125 3.43639C39.0588 3.86661 47.5688 11.4705 47.5688 20.9266C47.5688 23.431 47.3494 25.897 47.0537 28.3147C46.4894 32.9277 42.9564 36.6386 38.5043 37.659C38.4237 38.7078 38.3338 39.7475 38.2421 40.7774C37.9375 44.2011 35.2797 47.035 31.8731 47.4925C29.7058 47.7836 27.4856 48.0187 25.225 48.0187C22.9644 48.0187 20.7442 47.7836 18.5769 47.4925C15.1703 47.035 12.5126 44.2011 12.2079 40.7774C12.1162 39.7475 12.0263 38.7078 11.9458 37.659Z" fill="#CDFF71" stroke="black" stroke-width="5.3625" stroke-linejoin="round"/>
<path d="M22.264 39.3601L28.186 39.3601" stroke="black" stroke-width="5.3625" stroke-linecap="round"/>
<circle cx="16.4036" cy="22.2371" r="4.46875" fill="white" stroke="black" stroke-width="5.3625"/>
<circle cx="33.2731" cy="22.2371" r="4.46875" fill="white" stroke="black" stroke-width="5.3625"/>
</svg>
