<svg width="67" height="66" viewBox="0 0 67 66" fill="purple" xmlns="http://www.w3.org/2000/svg">
    <path fill-rule="evenodd" clip-rule="evenodd"
        d="M0.799866 33.6552C0.799866 30.9334 3.00633 28.7269 5.72814 28.7269H18.8702C20.3823 28.7269 21.6081 29.9527 21.6081 31.4648V63.2248C21.6081 64.737 20.3823 65.9628 18.8702 65.9628H5.72814C3.00633 65.9628 0.799866 63.7563 0.799866 61.0345V33.6552ZM6.27573 34.2028V60.4869H16.1323V34.2028H6.27573Z"
        fill="purple" />
    <path fill-rule="evenodd" clip-rule="evenodd"
        d="M29.822 5.7283C29.5196 5.7283 29.2744 5.97346 29.2744 6.27588V16.1324C29.2744 16.5575 29.1755 16.9767 28.9854 17.3569L20.7716 33.7845C20.0953 35.1369 18.4507 35.6851 17.0983 35.0089C15.7458 34.3327 15.1976 32.6881 15.8738 31.3356L23.7986 15.4861V6.27588C23.7986 2.94922 26.4953 0.252434 29.822 0.252434H32.0124C37.7584 0.252434 42.4165 4.91052 42.4165 10.6566V22.7035H55.1825C62.9243 22.7035 68.4542 30.1989 66.1698 37.5959L61.274 53.4489C59.077 60.5631 52.5004 65.4152 45.0547 65.4152H18.3227C16.8106 65.4152 15.5848 64.1894 15.5848 62.6773C15.5848 61.1651 16.8106 59.9393 18.3227 59.9393H45.0547C50.0985 59.9393 54.5536 56.6524 56.042 51.8332L60.9377 35.9801C62.1343 32.1055 59.2377 28.1793 55.1825 28.1793H39.6786C38.1664 28.1793 36.9406 26.9535 36.9406 25.4414V10.6566C36.9406 7.93476 34.7342 5.7283 32.0124 5.7283H29.822Z"
        fill="rgb(249, 191, 41)" />
</svg>