<svg width="53" height="53" viewBox="0 0 53 53" fill="white" xmlns="http://www.w3.org/2000/svg">
    <path
        d="M0.147217 26.4131C0.147217 11.8884 11.9218 0.113903 26.4464 0.113903C40.0834 0.113903 51.2962 10.4933 52.6157 23.7832H17.0161L24.3611 16.4381C25.3882 15.411 25.3882 13.7459 24.3611 12.7188C23.3341 11.6918 21.6689 11.6918 20.6419 12.7188L8.80725 24.5534C7.78021 25.5805 7.78021 27.2457 8.80725 28.2727L20.6419 40.1073C21.6689 41.1344 23.3341 41.1344 24.3611 40.1073C25.3882 39.0803 25.3882 37.4151 24.3611 36.3881L17.0161 29.043H52.6157C51.2962 42.3328 40.0834 52.7122 26.4464 52.7122C11.9218 52.7122 0.147217 40.9377 0.147217 26.4131Z"
        fill="purple" />
</svg>