<svg width="38" height="39" viewBox="0 0 38 39" fill="none" xmlns="http://www.w3.org/2000/svg">
<path fill-rule="evenodd" clip-rule="evenodd" d="M33.3297 2.34392C23.7088 0.719753 13.8836 0.719753 4.26265 2.34391C2.27323 2.67976 0.916283 4.54309 1.20722 6.53958L4.77859 31.0471C5.23102 34.1518 7.6364 36.7392 10.882 37.141C16.2252 37.8025 21.3672 37.8025 26.7104 37.141C29.956 36.7392 32.3614 34.1518 32.8138 31.0471L36.3852 6.53958C36.6761 4.54309 35.3192 2.67976 33.3297 2.34392Z" fill="#E6FAFF"/>
<path fill-rule="evenodd" clip-rule="evenodd" d="M31.16 14.571C23.126 12.9112 15.905 12.934 6.44177 14.6384L8.74861 30.4684C8.95989 31.9183 10.0525 32.9955 11.3747 33.1591C16.3905 33.7801 21.2015 33.7801 26.2173 33.1591C27.5395 32.9955 28.6321 31.9183 28.8434 30.4684L31.16 14.571Z" fill="#39CCFB"/>
</svg>
