<svg width="44" height="44" viewBox="0 0 44 44" fill="none" xmlns="http://www.w3.org/2000/svg">
<path fill-rule="evenodd" clip-rule="evenodd" d="M41.0362 8.33203C41.751 8.33203 42.406 8.73105 42.7339 9.36622C43.0618 10.0014 43.0077 10.7665 42.5936 11.3492L38.058 17.7329H41.4291C42.4843 17.7329 43.3396 18.5882 43.3396 19.6434C43.3396 20.6986 42.4843 21.554 41.4291 21.554H34.3568C33.642 21.554 32.987 21.1549 32.6591 20.5198C32.3312 19.8846 32.3853 19.1195 32.7994 18.5368L37.335 12.1531H34.7497C33.6946 12.1531 32.8392 11.2978 32.8392 10.2426C32.8392 9.18741 33.6946 8.33203 34.7497 8.33203H41.0362ZM35.5578 24.4571C36.2726 24.4571 36.9276 24.8561 37.2555 25.4913C37.5834 26.1264 37.5293 26.8915 37.1152 27.4742L35.2995 30.0298H35.7907C36.8459 30.0298 37.7012 30.8852 37.7012 31.9404C37.7012 32.9955 36.8459 33.8509 35.7907 33.8509H31.5983C30.8835 33.8509 30.2285 33.4519 29.9006 32.8167C29.5727 32.1816 29.6268 31.4165 30.0408 30.8338L31.8566 28.2782H31.8312C30.776 28.2782 29.9207 27.4228 29.9207 26.3676C29.9207 25.3125 30.776 24.4571 31.8312 24.4571H35.5578Z" fill="#39CCFB"/>
<path fill-rule="evenodd" clip-rule="evenodd" d="M22.0892 1.49792C15.6941 1.49792 10.4821 3.30128 6.8703 6.91303C3.25855 10.5248 1.4552 15.7368 1.4552 22.1319C1.4552 28.527 3.25855 33.739 6.8703 37.3507C10.4821 40.9625 15.6941 42.7658 22.0892 42.7658C24.3207 42.7658 26.4058 42.547 28.3303 42.1081C29.4444 41.854 30.0275 40.9134 30.0688 40.0222C30.1085 39.1652 29.6668 38.246 28.75 37.7945C23.5383 35.228 20.5607 30.0226 20.5607 22.1319C20.5607 14.2412 23.5383 9.03578 28.75 6.4693C29.6668 6.01779 30.1085 5.09861 30.0688 4.24156C30.0275 3.35034 29.4444 2.40979 28.3303 2.15568C26.4058 1.71677 24.3207 1.49792 22.0892 1.49792Z" fill="#EBDD94"/>
</svg>
