<svg width="46" height="46" viewBox="0 0 46 46" fill="none" xmlns="http://www.w3.org/2000/svg">
<path fill-rule="evenodd" clip-rule="evenodd" d="M8.46941 1.73526C8.97121 1.85271 9.38747 2.20137 9.59111 2.67479C9.7187 2.97139 10.0737 3.36559 10.9246 3.8584C11.6945 4.3043 12.6408 4.7064 13.7529 5.17889L14.0443 5.30277C15.233 5.80876 16.569 6.39024 17.7751 7.13156C18.9859 7.87574 20.1668 8.84 20.979 10.1703C22.4253 12.5393 22.8437 14.9488 22.228 17.1656C21.9632 18.1189 21.5199 18.991 20.936 19.7745C21.6746 20.8574 22.4132 22.0136 23.1645 23.2909C23.4312 23.0105 23.7147 22.7143 24.0258 22.3984C24.7757 21.6367 25.6267 20.8301 26.6345 20.0955C26.5125 19.8221 26.4097 19.5382 26.3279 19.2439C25.8345 17.4673 26.1793 15.5611 27.3005 13.7246C27.9501 12.6606 28.886 11.9031 29.8152 11.3319C30.7398 10.7636 31.7578 10.3215 32.6379 9.94687L32.8465 9.85815C33.6804 9.50376 34.3584 9.21561 34.9059 8.89852C35.5129 8.54695 35.6794 8.3118 35.7198 8.21783C35.9235 7.74441 36.3397 7.39575 36.8415 7.2783C37.3433 7.16085 37.8711 7.28855 38.2637 7.62241C39.9395 9.04755 40.9913 11.2591 41.2806 13.5493C41.5726 15.8599 41.1098 18.4142 39.5392 20.5291C37.1924 23.6892 33.3304 25.2071 30.1201 23.6174C29.1892 24.1925 28.3658 24.9345 27.4974 25.8165C27.2454 26.0724 26.975 26.3569 26.6903 26.6564C25.9284 27.4579 25.0639 28.3673 24.1767 29.1254C23.6141 29.6061 22.8634 29.805 22.1365 29.6659C21.4097 29.5269 20.7854 29.0649 20.44 28.4104C19.2999 26.2504 18.2182 24.4607 17.1274 22.8384C13.1673 24.601 8.40263 22.735 5.41529 18.7125C3.39825 15.9965 2.79607 12.705 3.17444 9.71022C3.55024 6.73587 4.9143 3.89323 7.04726 2.07937C7.43986 1.74551 7.96761 1.61781 8.46941 1.73526Z" fill="#7AEA92"/>
<path fill-rule="evenodd" clip-rule="evenodd" d="M17.3259 42.3916C15.2518 42.3916 13.3148 41.0574 12.777 38.9235C12.4185 37.5009 12.01 35.5555 11.8636 33.5985C11.6677 30.9796 13.7991 29.1067 16.1293 29.012C20.0323 28.8534 24.9718 28.8534 28.8749 29.012C31.2051 29.1067 33.3364 30.9796 33.1406 33.5985C32.9942 35.5555 32.5857 37.5009 32.2272 38.9235C31.6894 41.0574 29.7524 42.3916 27.6783 42.3916H17.3259Z" fill="#E28729"/>
</svg>
