<svg width="36" height="35" viewBox="0 0 36 35" fill="none" xmlns="http://www.w3.org/2000/svg">
<path fill-rule="evenodd" clip-rule="evenodd" d="M4.71971 0.700256C2.77725 0.700256 1.15308 2.19581 1.01185 4.14221C0.284555 14.1663 0.283863 20.641 1.01336 30.7859C1.15341 32.7335 2.77807 34.2304 4.7216 34.2304H10.1908C12.13 34.2304 13.7534 32.7394 13.8973 30.7955C14.6265 20.9397 14.6371 14.0195 13.8989 4.13185C13.7539 2.18899 12.1307 0.700256 10.1932 0.700256H4.71971Z" fill="#F06A56"/>
<path fill-rule="evenodd" clip-rule="evenodd" d="M0.466187 20.0979H14.4483V16.9933H0.466187V20.0979ZM14.1217 24.9384H0.790069V28.0431H14.1217V24.9384Z" fill="#A53917"/>
<path fill-rule="evenodd" clip-rule="evenodd" d="M18.8247 1.87376C16.9409 2.34732 15.7303 4.19371 16.0679 6.11581C17.8063 16.0147 19.3841 22.2942 22.5649 31.9552C23.1755 33.8099 25.1161 34.8656 27.001 34.3918L32.3052 33.0584C34.1858 32.5857 35.3968 30.7439 35.0624 28.8235C33.3668 19.0873 31.69 12.3734 28.5636 2.96399C27.9492 1.11511 26.0121 0.0670108 24.133 0.539372L18.8247 1.87376Z" fill="#49D5E8"/>
<path fill-rule="evenodd" clip-rule="evenodd" d="M19.3824 21.7334L33.0146 18.3066L32.2577 15.2957L18.6255 18.7225L19.3824 21.7334ZM33.8811 23.0804L20.883 26.3478L21.6399 29.3588L34.638 26.0913L33.8811 23.0804Z" fill="#114F89"/>
</svg>
