<svg width="70" height="63" viewBox="0 0 70 63" fill="purple" xmlns="http://www.w3.org/2000/svg">
    <path fill-rule="evenodd" clip-rule="evenodd"
        d="M19.7671 6.37076C11.3147 6.37076 1.80986 16.9404 7.47207 29.3262C14.0911 43.8049 28.843 53.3031 35.85 57.0759C37.1814 57.7928 37.6795 59.4532 36.9627 60.7846C36.2458 62.116 34.5853 62.6142 33.2539 61.8973C26.023 58.0039 9.89143 47.7889 2.49194 31.6029C-4.86309 15.5142 7.41127 0.894897 19.7671 0.894897C23.9609 0.8949 27.9826 1.66618 31.7356 4.46948C35.4053 7.21052 38.5201 11.6747 41.4449 18.4242C44.9533 26.5205 48.0308 30.9688 50.8156 33.2895C53.4061 35.4484 55.8669 35.8723 58.7766 35.4247C60.2711 35.1947 61.6691 36.2199 61.899 37.7144C62.1289 39.209 61.1038 40.6069 59.6092 40.8369C55.4003 41.4844 51.2903 40.8132 47.31 37.4961C43.524 34.341 40.0307 28.9327 36.4205 20.6015C33.6717 14.2582 31.0369 10.7823 28.4587 8.85659C25.9639 6.99309 23.2396 6.37076 19.7671 6.37076Z"
        fill="purple" />
    <path fill-rule="evenodd" clip-rule="evenodd"
        d="M49.8839 6.37076C58.3363 6.37076 67.8411 16.9404 62.1789 29.3262C55.5599 43.8049 40.808 53.3031 33.801 57.0759C32.4696 57.7928 31.9715 59.4532 32.6884 60.7846C33.4052 62.116 35.0657 62.6142 36.3971 61.8973C43.628 58.0039 59.7596 47.7889 67.1591 31.6029C74.5141 15.5142 62.2397 0.894897 49.8839 0.894897C46.7801 0.894899 43.7323 1.31483 40.8039 2.71671C37.8615 4.12531 35.2554 6.42112 32.8586 9.83331C31.9894 11.0707 32.2879 12.7783 33.5253 13.6475C34.7627 14.5167 36.4703 14.2182 37.3395 12.9808C39.314 10.1698 41.2409 8.57851 43.1683 7.65579C45.1098 6.72635 47.2687 6.37076 49.8839 6.37076Z"
        fill="rgb(249, 191, 41)" />
</svg>