<svg width="66" height="65" viewBox="0 0 66 65" fill="purple" xmlns="http://www.w3.org/2000/svg">
    <path fill-rule="evenodd" clip-rule="evenodd"
        d="M0.696655 16.2357C0.696655 7.46537 7.80637 0.355652 16.5767 0.355652H49.4318C58.2021 0.355652 65.3118 7.46537 65.3118 16.2357V49.0908C65.3118 57.8611 58.2021 64.9708 49.4318 64.9708H16.5767C7.80637 64.9708 0.696655 57.8611 0.696655 49.0908V16.2357ZM16.5767 5.83151C10.8306 5.83151 6.17252 10.4896 6.17252 16.2357V49.0908C6.17252 54.8369 10.8306 59.495 16.5767 59.495H49.4318C55.1779 59.495 59.836 54.8369 59.836 49.0908V16.2357C59.836 10.4896 55.1779 5.83151 49.4318 5.83151H16.5767Z"
        fill="purple" />
    <path fill-rule="evenodd" clip-rule="evenodd"
        d="M24.7904 16.2356C24.7904 13.5138 26.9969 11.3074 29.7187 11.3074H37.3849C40.1067 11.3074 42.3132 13.5138 42.3132 16.2356V49.0908C42.3132 51.8126 40.1067 54.0191 37.3849 54.0191H29.7187C26.9969 54.0191 24.7904 51.8126 24.7904 49.0908V16.2356ZM30.2663 16.7832V48.5432H36.8373V16.7832H30.2663Z"
        fill="rgb(249, 191, 41)" />
    <path fill-rule="evenodd" clip-rule="evenodd"
        d="M12.7435 32.6632C12.7435 29.9414 14.95 27.735 17.6718 27.735H25.338C28.0598 27.735 30.2663 29.9414 30.2663 32.6632V49.0908C30.2663 51.8126 28.0598 54.0191 25.338 54.0191H17.6718C14.95 54.0191 12.7435 51.8126 12.7435 49.0908V32.6632ZM18.2194 33.2108V48.5432H24.7904V33.2108H18.2194Z"
        fill="rgb(249, 191, 41)" />
    <path fill-rule="evenodd" clip-rule="evenodd"
        d="M36.8373 26.0922C36.8373 23.3704 39.0437 21.1639 41.7656 21.1639H49.4318C52.1536 21.1639 54.36 23.3704 54.36 26.0922V49.0908C54.36 51.8127 52.1536 54.0191 49.4318 54.0191H41.7656C39.0437 54.0191 36.8373 51.8126 36.8373 49.0908V26.0922ZM42.3131 26.6398V48.5433H48.8842V26.6398H42.3131Z"
        fill="rgb(249, 191, 41)" />
</svg>