<svg width="53" height="53" viewBox="0 0 53 53" fill="white" xmlns="http://www.w3.org/2000/svg">
    <path
        d="M52.617 26.4092C52.6917 40.9336 40.9778 52.7685 26.4534 52.8432C12.8165 52.9133 1.55053 42.5916 0.162746 29.3088L35.7619 29.1258L28.4547 36.5085C27.4329 37.5408 27.4415 39.206 28.4738 40.2277C29.5061 41.2495 31.1713 41.2409 32.193 40.2086L43.9667 28.3133C44.9884 27.281 44.9798 25.6159 43.9475 24.5941L32.0522 12.8205C31.0199 11.7987 29.3548 11.8073 28.333 12.8396C27.3113 13.8719 27.3198 15.537 28.3521 16.5588L35.7349 23.866L0.13571 24.049C1.38687 10.7526 12.5462 0.315659 26.183 0.245562C40.7074 0.170902 52.5424 11.8848 52.617 26.4092Z"
        fill="purple" />
</svg>